<svg width="120" height="120" viewBox="0 0 120 120" fill="none" xmlns="http://www.w3.org/2000/svg">
<g clip-path="url(#clip0_16620_1209)">
<circle cx="60" cy="60" r="59.5" fill="white" stroke="black"/>
<mask id="mask0_16620_1209" style="mask-type:alpha" maskUnits="userSpaceOnUse" x="0" y="0" width="120" height="120">
<circle cx="60" cy="60" r="59.5" fill="#C7D3FF"/>
<circle cx="60" cy="60" r="59.5" fill="#C7D3FF"/>
<circle cx="60" cy="60" r="59.5" stroke="black"/>
</mask>
<g mask="url(#mask0_16620_1209)">
<rect x="60" y="-30" width="77.7778" height="186.667" fill="#C7D3FF"/>
</g>
<mask id="path-4-inside-1_16620_1209" fill="white">
<path fill-rule="evenodd" clip-rule="evenodd" d="M57.3086 119.941C78.1575 108.098 92.2213 85.691 92.2213 59.9995C92.2213 34.3087 78.1582 11.9025 57.3101 0.0591825C58.2015 0.0198655 59.098 0 59.9992 0C93.1362 0 119.999 26.8629 119.999 60C119.999 93.1371 93.1362 120 59.9992 120C59.0975 120 58.2005 119.98 57.3086 119.941Z"/>
</mask>
<path fill-rule="evenodd" clip-rule="evenodd" d="M57.3086 119.941C78.1575 108.098 92.2213 85.691 92.2213 59.9995C92.2213 34.3087 78.1582 11.9025 57.3101 0.0591825C58.2015 0.0198655 59.098 0 59.9992 0C93.1362 0 119.999 26.8629 119.999 60C119.999 93.1371 93.1362 120 59.9992 120C59.0975 120 58.2005 119.98 57.3086 119.941Z" fill="white"/>
<path d="M57.3086 119.941L56.8147 119.071L53.7948 120.787L57.2645 120.94L57.3086 119.941ZM57.3101 0.0591825L57.266 -0.939846L53.7963 -0.786815L56.8162 0.928677L57.3101 0.0591825ZM91.2213 59.9995C91.2213 85.3167 77.3635 107.399 56.8147 119.071L57.8025 120.81C78.9514 108.797 93.2213 86.0652 93.2213 59.9995H91.2213ZM56.8162 0.928677C77.3642 12.6016 91.2213 34.683 91.2213 59.9995H93.2213C93.2213 33.9345 78.9521 11.2035 57.804 -0.810312L56.8162 0.928677ZM57.3542 1.05821C58.2309 1.01954 59.1127 1 59.9992 1V-1C59.0833 -1 58.1721 -0.97981 57.266 -0.939846L57.3542 1.05821ZM59.9992 1C92.584 1 118.999 27.4152 118.999 60H120.999C120.999 26.3106 93.6885 -1 59.9992 -1V1ZM118.999 60C118.999 92.5848 92.584 119 59.9992 119V121C93.6885 121 120.999 93.6894 120.999 60H118.999ZM59.9992 119C59.1122 119 58.2299 118.98 57.3527 118.942L57.2645 120.94C58.1711 120.98 59.0828 121 59.9992 121V119Z" fill="black" mask="url(#path-4-inside-1_16620_1209)"/>
<mask id="path-6-inside-2_16620_1209" fill="white">
<path fill-rule="evenodd" clip-rule="evenodd" d="M62.6914 119.941C41.8425 108.098 27.7787 85.691 27.7787 59.9995C27.7787 34.3087 41.8418 11.9025 62.6899 0.0591822C61.7985 0.0198654 60.902 0 60.0008 0C26.8638 0 0.000846863 26.8629 0.000846863 60C0.000846863 93.1371 26.8638 120 60.0008 120C60.9025 120 61.7995 119.98 62.6914 119.941Z"/>
</mask>
<path fill-rule="evenodd" clip-rule="evenodd" d="M62.6914 119.941C41.8425 108.098 27.7787 85.691 27.7787 59.9995C27.7787 34.3087 41.8418 11.9025 62.6899 0.0591822C61.7985 0.0198654 60.902 0 60.0008 0C26.8638 0 0.000846863 26.8629 0.000846863 60C0.000846863 93.1371 26.8638 120 60.0008 120C60.9025 120 61.7995 119.98 62.6914 119.941Z" fill="white"/>
<path d="M62.6914 119.941L63.1853 119.071L66.2052 120.787L62.7355 120.94L62.6914 119.941ZM62.6899 0.0591822L62.734 -0.939847L66.2036 -0.786816L63.1838 0.928677L62.6899 0.0591822ZM28.7787 59.9995C28.7787 85.3167 42.6365 107.399 63.1853 119.071L62.1975 120.81C41.0485 108.797 26.7787 86.0652 26.7787 59.9995H28.7787ZM63.1838 0.928677C42.6358 12.6016 28.7787 34.683 28.7787 59.9995H26.7787C26.7787 33.9345 41.0479 11.2035 62.196 -0.810313L63.1838 0.928677ZM62.6458 1.05821C61.7691 1.01954 60.8873 1 60.0008 1V-1C60.9167 -1 61.8279 -0.979811 62.734 -0.939847L62.6458 1.05821ZM60.0008 1C27.416 1 1.00085 27.4152 1.00085 60H-0.999153C-0.999153 26.3106 26.3115 -1 60.0008 -1V1ZM1.00085 60C1.00085 92.5848 27.416 119 60.0008 119V121C26.3115 121 -0.999153 93.6894 -0.999153 60H1.00085ZM60.0008 119C60.8878 119 61.7701 118.98 62.6473 118.942L62.7355 120.94C61.8289 120.98 60.9172 121 60.0008 121V119Z" fill="black" mask="url(#path-6-inside-2_16620_1209)"/>
<path d="M0 60L120 60" stroke="black"/>
<path d="M60 0V120" stroke="black"/>
</g>
<defs>
<clipPath id="clip0_16620_1209">
<rect width="120" height="120" fill="white"/>
</clipPath>
</defs>
</svg>
